PathFileType	4	(X/Y/Z)	C:\Users\Owen\Repositories\CapacitiveSensingKinematics\CSOptimalControl\OutputData\FilteredlIMUGyros.trc
DataRate	CameraRate	NumFrames	NumMarkers	Units	OrigDataRate	OrigDataStartFrame	OrigNumFrames
100	100	16	8	m	100	4410	7057
Frame#	Time	/bodyset/torso/torso_imu_offset			/bodyset/pelvis/pelvis_imu_offset			/bodyset/tibia_r/tibia_r_imu_offset			/bodyset/femur_r/femur_r_imu_offset			/bodyset/tibia_l/tibia_l_imu_offset			/bodyset/femur_l/femur_l_imu_offset			/bodyset/toes_r/toes_r_imu_offset			/bodyset/toes_l/toes_l_imu_offset			
		X1	Y1	Z1	X2	Y2	Z2	X3	Y3	Z3	X4	Y4	Z4	X5	Y5	Z5	X6	Y6	Z6	X7	Y7	Z7	X8	Y8	Z8	

4411	44.1	0.02130714551984141	0.04990080664393982	0.1228156592180271	-0.2608046437392714	-0.02408182054753232	-0.0520518889017623	-0.1201868359729466	0.2550686596366917	-1.135050349260893	-0.3097548784277894	-0.2271446420494566	-0.587795780693765	-3.100172741921019	-1.381388152481248	-3.196469238310339	-0.04440786983323039	0.09190535409371597	1.452778298759156	-0.1497121329972387	-0.6586506887678976	0.09526205274148188	-0.7345095968615591	2.590925535047137	-3.50560122199347	
4412	44.11	-0.02359290787595435	0.06839229518263786	0.08881113756377559	-0.2665558755531616	-0.0224328208029232	-0.09208060438631231	-0.0913590479341419	0.2843300854463701	-1.198897438737816	-0.3224754667428385	-0.1814844412328281	-0.5604759620260358	-2.731228175531094	-1.145177252369346	-2.625824258612706	-0.4465904773325227	0.08066164206149637	1.353179360163507	-0.1433649962954143	-0.7071508793397229	0.09259339186663916	-0.5610235898085395	2.165271058835586	-3.366168556396124	
4413	44.12	-0.05989385464182116	0.08436669216407869	0.05506306098824706	-0.262504908640837	-0.02321543193491105	-0.1303527695408094	-0.06598921280158809	0.3108386007990081	-1.267743211477117	-0.2999080377703919	-0.1391109971964016	-0.5300927289316776	-2.277411300062283	-0.9003256969100963	-1.893269712807052	-0.8190906611739255	0.0367636722671467	1.185382881038468	-0.1299102073263446	-0.7611587084501521	0.08270723864055379	-0.3044178439336216	1.692935235121569	-3.010600390880441	
4414	44.13	-0.08819568982429581	0.09882892829126559	0.02459781220524771	-0.2560435659211553	-0.03288654231689715	-0.1647256053866177	-0.05623267061682444	0.3338614701901331	-1.341385564724294	-0.2504233325985717	-0.1005201892768753	-0.4963970119516654	-1.823854738515549	-0.6427869966292891	-1.033981536932299	-1.175465696006909	-0.01896623183947143	0.9623593322607273	-0.1110279577779621	-0.8253873187738086	0.06480406716518258	-0.0570197004759107	1.145664468257144	-2.474650786340194	
4415	44.14	-0.1110625493214397	0.1143740276357792	-0.0002092180588063475	-0.2590592602184661	-0.05475746692728426	-0.1932819992260975	-0.06789450442275863	0.3525151903670833	-1.419006154875123	-0.1919182083212072	-0.06306311408841336	-0.4585092979023067	-1.442856214391354	-0.3776347634501677	-0.1296302342005528	-1.522640883594954	-0.08170399461888503	0.712676484809453	-0.08905747396587191	-0.9042992128381551	0.03753748868129216	0.06050629912835371	0.5052117395213559	-1.821202459812731	
4416	44.15	-0.1328881928279289	0.1347892663709948	-0.01818305983811946	-0.2859663298822953	-0.08749763946109901	-0.2150967523971915	-0.09948482107281505	0.3652086305719746	-1.499920205759138	-0.1478456417129556	-0.0232340902971414	-0.415219750676834	-1.176378935489781	-0.1298630718649034	0.7112193711910151	-1.840725147064601	-0.1659633074127176	0.4753005844871173	-0.06725692070126363	-1.001769570509588	-0.0003832240210720119	-0.04210527159536669	-0.2072154232632286	-1.126347399783699	
4417	44.16	-0.1593077787491826	0.1645815667715558	-0.02982085599335143	-0.3477260240670607	-0.1252451570432032	-0.2316154577338735	-0.1467323834814743	0.3700841720201035	-1.583392910056758	-0.141679245102406	0.02157606723839363	-0.3653444744650504	-1.025474602878068	0.05570204618824806	1.384041020690055	-2.086356015428209	-0.2895742725762159	0.2903562106632652	-0.04889018032611323	-1.121473640631015	-0.04905224162553408	-0.3662554764559763	-0.9257824672809111	-0.4702083191769897	
4418	44.17	-0.195695193341673	0.2079949273047796	-0.03745274624949031	-0.4446326580421017	-0.1602567512345989	-0.2470069054025393	-0.2073990041965231	0.3663734957497928	-1.667800697869722	-0.1891561568403509	0.07281667088302639	-0.3087652041036176	-0.9466872186848108	0.1318024183908699	1.810954415638061	-2.219930117203549	-0.4548971248995649	0.1914282065667507	-0.03549393537947119	-1.267496009851024	-0.1060015667143259	-0.8159438231960675	-1.565834741554484	0.07361274662683381	
4419	44.18	-0.2449935563869137	0.2669354607354516	-0.04478804081485636	-0.5628836152214721	-0.187124494088156	-0.266875441410548	-0.2816795825155519	0.3557898723670544	-1.750535724047792	-0.2909901823470906	0.1313767990617654	-0.2477352100060844	-0.8613802786040878	0.07009964640397244	1.948862348271767	-2.232605238696344	-0.6435443436517048	0.2014012890918353	-0.0260841782367904	-1.444395517930464	-0.1653690044346919	-1.243980669711198	-2.07048980436326	0.4551482878527603	
4420	44.19	-0.3059914963431148	0.3386201549941819	-0.05583577683825236	-0.6773098081084808	-0.2058484662379956	-0.2961200035408585	-0.3684273163046473	0.3426743735391417	-1.82911304533747	-0.4305749787626297	0.1978654343045917	-0.1862452817877928	-0.6923800176319578	-0.1194920119952106	1.80005494274985	-2.148123387961928	-0.8232800905051995	0.3288693335440768	-0.01963179713792074	-1.656707629776653	-0.2186174702531493	-1.521296266817584	-2.450530453873784	0.6664946851868868	
4421	44.2	-0.3732327282391844	0.4150491411353241	-0.07341281913730768	-0.758529522972655	-0.2215096707438466	-0.3370105865939804	-0.4610164432767972	0.332246539643255	-1.902480481342728	-0.5787397165341154	0.272200997604361	-0.1272919495250008	-0.4202390460684089	-0.3760333128321909	1.43609336121001	-2.000712585427974	-0.9559044597297216	0.5618216876937455	-0.01666984727615995	-1.908122028913094	-0.2572087806035256	-1.589188021440614	-2.772219733274726	0.7447093211755434	
4422	44.21	-0.4390056656179891	0.4856313259840951	-0.09775530610779638	-0.7810376202022455	-0.2405941748308815	-0.3883831940195275	-0.5468972607520703	0.3281160169059016	-1.971078532195561	-0.7032830918916705	0.353543274130233	-0.07071876413153362	-0.1291228445368711	-0.5981121192036406	1.008521926317289	-1.813056953059987	-1.002174848180348	0.8600250733828305	-0.01598693650750164	-2.20030441470279	-0.2758391418268298	-1.463264679249121	-3.074996803339691	0.7461819566106378	
4423	44.22	-0.4963135576976201	0.5416442899946643	-0.1261586761285206	-0.7291306913095192	-0.2663903113650209	-0.4464495580738243	-0.6119236876764441	0.3307934948695742	-2.035911790541451	-0.7784482690238528	0.4413998418167971	-0.01297289039028789	-0.00148668502721909	-0.6898489849959082	0.7014504020188854	-1.594991149544291	-0.930425768883313	1.153422060028399	-0.01232754690561811	-2.532272634040184	-0.2744046874443966	-1.205723555378173	-3.296092468797995	0.7082647219735624	
4424	44.23	-0.5406391856787284	0.5792031870783999	-0.1542101351080534	-0.5991451758773689	-0.2969986685707316	-0.5064936612775219	-0.6464686435312458	0.3376123889757991	-2.098360408377014	-0.7918167455782708	0.5371284944184157	0.05173421094770603	-0.2287537794419416	-0.6198821479837721	0.630515654736606	-1.360173102992871	-0.7334622959555074	1.35683271360861	0.001416924818384766	-2.900906602305152	-0.2586939661515423	-0.8981467985254392	-3.317280047393114	0.6314934885785151	
4425	44.24	-0.5695962137269602	0.5983495853590119	-0.1778965558079896	-0.3998712329541726	-0.3277283748831968	-0.5638075022086499	-0.6498547051856639	0.3435979826220918	-2.160653221909526	-0.7482949157653347	0.6444839165946299	0.1295497874403765	-0.8780871357166986	-0.4348505672451448	0.7745985240869714	-1.139007730640374	-0.4452979770801049	1.403341816396525	0.03364725310355162	-3.30138231700387	-0.2402336456351329	-0.6153599608689081	-3.083429370771438	0.4931507613662475	
4426	44.25	-0.5819667308323817	0.5996025235072286	-0.195123688257322	-0.1542944607029609	-0.3548019431977239	-0.613166774437331	-0.6319504503828699	0.3432722779482814	-2.225276648807868	-0.6690148623101346	0.7681789286980495	0.2256160045254876	-1.834312474978356	-0.2079104100876707	1.012571092059289	-0.9746000552339525	-0.1418748867079624	1.280239213761626	0.09644795976743013	-3.727158757741494	-0.2344277653179585	-0.4034872955441761	-2.632709803957489	0.2788401579352806	
